<?xml version="1.0" encoding="utf-8"?>
<!-- Generator: Adobe Illustrator 19.0.0, SVG Export Plug-In . SVG Version: 6.00 Build 0)  -->
<svg version="1.1" id="Layer_1" xmlns="http://www.w3.org/2000/svg" xmlns:xlink="http://www.w3.org/1999/xlink" x="0px" y="0px"
	 viewBox="0 0 100.1 100.1" style="enable-background:new 0 0 100.1 100.1;" xml:space="preserve">
<style type="text/css">
	.st0{fill:#888888;}
</style>
<g>
	<path id="XMLID_2_" class="st0" d="M94.6,5.5C90.9,1.8,86.5,0,81.3,0H18.8C13.6,0,9.2,1.8,5.5,5.5C1.8,9.2,0,13.6,0,18.8v62.6
		c0,5.2,1.8,9.6,5.5,13.3c3.7,3.7,8.1,5.5,13.3,5.5h62.6c5.2,0,9.6-1.8,13.3-5.5c3.7-3.7,5.5-8.1,5.5-13.3V18.8
		C100.1,13.6,98.3,9.2,94.6,5.5L94.6,5.5z M85.2,51.5H73.8v41.4H56.7V51.5h-8.5V37.2h8.5v-8.5c0-6.1,1.4-10.8,4.3-13.9
		c2.9-3.1,7.6-4.7,14.2-4.7h11.4v14.3h-7.2c-2.4,0-4,0.4-4.7,1.3c-0.7,0.8-1,2.3-1,4.5v7.1h12.9L85.2,51.5z M85.2,51.5"/>
</g>
</svg>
